<svg xmlns="http://www.w3.org/2000/svg" viewBox="0 0 64 84">
  <defs><linearGradient id="s" x1="0" y1="0" x2="1" y2="1"><stop stop-color="#ffb23d"/><stop offset=".55" stop-color="#f06d18"/><stop offset="1" stop-color="#6b1d08"/></linearGradient><filter id="g"><feGaussianBlur stdDeviation="1.4" result="b"/><feMerge><feMergeNode in="b"/><feMergeNode in="SourceGraphic"/></feMerge></filter></defs>
  <ellipse cx="32" cy="79" rx="16" ry="4" fill="#000" opacity=".28"/>
  <path d="M21 18h22l4 19-6 21H23l-6-21z" fill="#0b1218"/>
  <path d="M24 19h16l4 18-5 18H25l-5-18z" fill="url(#s)"/>
  <path d="M24 10h16l5 9-4 8H23l-4-8z" fill="#111820"/><path d="M25 16h14" stroke="#70f0ff" stroke-width="3" filter="url(#g)"/>
  <path d="M22 37l-10 10M42 37l11 9" stroke="#101820" stroke-width="7" stroke-linecap="round"/><path d="M24 56l-10 14M39 56l7 18" stroke="#101820" stroke-width="8" stroke-linecap="round"/>
  <path d="M29 32h6M28 44h8" stroke="#91f6ff" stroke-width="2" filter="url(#g)"/>
</svg>
