<svg xmlns="http://www.w3.org/2000/svg" viewBox="0 0 64 84">
  <defs><linearGradient id="s" x1="0" y1="0" x2="1" y2="1"><stop stop-color="#ffb23d"/><stop offset=".55" stop-color="#f06d18"/><stop offset="1" stop-color="#6b1d08"/></linearGradient><filter id="g"><feGaussianBlur stdDeviation="1.4" result="b"/><feMerge><feMergeNode in="b"/><feMergeNode in="SourceGraphic"/></feMerge></filter></defs>
  <ellipse cx="33" cy="79" rx="18" ry="4" fill="#000" opacity=".28"/>
  <path d="M28 11h14l6 7-5 9H27l-4-8z" fill="#111820"/><path d="M40 17h8" stroke="#70f0ff" stroke-width="3" filter="url(#g)"/>
  <path d="M25 27h18l7 24-12 10H25l-6-22z" fill="#0b1218"/><path d="M27 29h14l5 19-10 9H26l-5-18z" fill="url(#s)"/>
  <path d="M25 39L17 54M45 39l10 5" stroke="#101820" stroke-width="7" stroke-linecap="round"/>
  <path d="M28 58l14 13M38 57L22 73" stroke="#101820" stroke-width="8" stroke-linecap="round"/>
  <path d="M29 36h12M30 48h9" stroke="#91f6ff" stroke-width="2" filter="url(#g)"/>
</svg>
