<svg xmlns="http://www.w3.org/2000/svg" viewBox="0 0 390 720">
  <defs>
    <linearGradient id="sky" x1="0" y1="0" x2="0" y2="1">
      <stop offset="0" stop-color="#061923"/>
      <stop offset=".48" stop-color="#0f3440"/>
      <stop offset="1" stop-color="#13252b"/>
    </linearGradient>
    <linearGradient id="road" x1="0" y1="0" x2="0" y2="1">
      <stop offset="0" stop-color="#465761"/>
      <stop offset=".55" stop-color="#2a3a43"/>
      <stop offset="1" stop-color="#56666c"/>
    </linearGradient>
    <linearGradient id="edge" x1="0" y1="0" x2="1" y2="0">
      <stop offset="0" stop-color="#071016"/>
      <stop offset=".5" stop-color="#45dfff"/>
      <stop offset="1" stop-color="#071016"/>
    </linearGradient>
    <filter id="glow"><feGaussianBlur stdDeviation="3" result="b"/><feMerge><feMergeNode in="b"/><feMergeNode in="SourceGraphic"/></feMerge></filter>
  </defs>
  <rect width="390" height="720" fill="url(#sky)"/>
  <g opacity=".72">
    <path d="M0 0h390v720H0z" fill="#07151b"/>
    <g fill="#183846">
      <path d="M8 0h42v720H8z"/><path d="M340 0h42v720h-42z"/>
      <path d="M60 0h20v720H60z" opacity=".55"/><path d="M310 0h20v720h-20z" opacity=".55"/>
    </g>
    <g fill="#46e6ff" opacity=".16" filter="url(#glow)">
      <rect x="18" y="36" width="32" height="4"/><rect x="341" y="84" width="31" height="4"/>
      <rect x="20" y="238" width="30" height="4"/><rect x="340" y="286" width="32" height="4"/>
      <rect x="18" y="440" width="32" height="4"/><rect x="342" y="488" width="30" height="4"/>
      <rect x="20" y="642" width="30" height="4"/><rect x="340" y="690" width="32" height="4"/>
    </g>
  </g>
  <path d="M63-30h264l31 780H32z" fill="#0a1014" opacity=".72"/>
  <path d="M79-30h232l23 780H56z" fill="url(#road)"/>
  <path d="M78-30h8l-23 780h-8zM304-30h8l24 780h-8z" fill="#071016"/>
  <path d="M88-30h4L68 750h-4zM298-30h4l24 780h-4z" fill="#68edff" opacity=".85" filter="url(#glow)"/>
  <g stroke="#f8f2d8" stroke-width="8" stroke-linecap="round" opacity=".98" filter="url(#glow)">
    <path d="M151 8v44M151 116v44M151 224v44M151 332v44M151 440v44M151 548v44M151 656v44"/>
    <path d="M239 62v44M239 170v44M239 278v44M239 386v44M239 494v44M239 602v44"/>
  </g>
  <g opacity=".38" stroke="#8ff4ff" stroke-width="3" filter="url(#glow)">
    <path d="M103 30h183M99 210h191M96 390h197M91 570h208"/>
  </g>
  <g fill="url(#edge)" opacity=".32">
    <rect x="0" y="0" width="390" height="16"/><rect x="0" y="704" width="390" height="16"/>
  </g>
</svg>
