<svg xmlns="http://www.w3.org/2000/svg" viewBox="0 0 342 86">
  <defs><linearGradient id="g" x1="1" y1="0" x2="0" y2="1"><stop stop-color="#103342"/><stop offset=".5" stop-color="#59e8ff"/><stop offset="1" stop-color="#26144b"/></linearGradient><filter id="glow"><feGaussianBlur stdDeviation="4" result="b"/><feMerge><feMergeNode in="b"/><feMergeNode in="SourceGraphic"/></feMerge></filter></defs>
  <rect x="4" y="6" width="334" height="74" rx="14" fill="#061018" opacity=".88"/>
  <rect x="10" y="12" width="322" height="62" rx="12" fill="url(#g)" opacity=".46" filter="url(#glow)"/>
  <g transform="translate(342 0) scale(-1 1)" fill="none" stroke="#fff4bb" stroke-width="7" stroke-linecap="round" stroke-linejoin="round" filter="url(#glow)">
    <path d="M88 58a23 23 0 1 1 12-42"/><path d="M101 17l2 18-17-5"/>
    <path d="M174 58a23 23 0 1 1 12-42"/><path d="M187 17l2 18-17-5"/>
    <path d="M260 58a23 23 0 1 1 12-42"/><path d="M273 17l2 18-17-5"/>
  </g>
  <path d="M24 72h294" stroke="#bff8ff" stroke-width="2" opacity=".65"/>
</svg>
